# xmcd
#
# Track frame offsets:
#	150
#	13987
#	28592
#	42644
#	57217
#	70242
#	83945
#	98405
#	112542
#	126895
#	141400
#	155637
#	168815
#	183185
#	198352
#	211907
#	226057
#	239957
#	253460
#	267218
#
# Disc length: 3744 seconds
#
# Revision: 1
# Processed by: cddbd v1.5.2PL0 Copyright (c) Steve Scherf et al.
# Submitted via: audiograbber 1.83.01
#
DISCID=1a0e9e14
DTITLE=Charley Patton - This Is The Blues [CD 1)
DYEAR=2008
DGENRE=Country Blues
TTITLE0=Pony Blues
TTITLE1=A Spoonful Blues
TTITLE2=Devil Sent The Rain Blues
TTITLE3=Frankie and Albert
TTITLE4=Heart Like Railroad Steel
TTITLE5=Down The Dirt Road Blues
TTITLE6=Screamin' and Hollerin' The Blues
TTITLE7=PEA Vine Blues
TTITLE8=Shake It and Break It
TTITLE9=Mississippi Boll Weevil Blues
TTITLE10=Prayer Of Death Pt 1
TTITLE11=Prayer Of Death Pt 2
TTITLE12=Green River Blues
TTITLE13=Hammer Blues
TTITLE14=Magnolia Blues
TTITLE15=Jim Lee Blues Pt 1
TTITLE16=Jim Lee Blues Pt 2
TTITLE17=Running Wild Blues
TTITLE18=High Water Everywhere Pt 1
TTITLE19=High Water Everywhere Pt 2
EXTD=PR1MO Collection (2 CD) - 2008
EXTT0=
EXTT1=
EXTT2=
EXTT3=
EXTT4=
EXTT5=
EXTT6=
EXTT7=
EXTT8=
EXTT9=
EXTT10=
EXTT11=
EXTT12=
EXTT13=
EXTT14=
EXTT15=
EXTT16=
EXTT17=
EXTT18=
EXTT19=
PLAYORDER=
